HIERARCHY
ROOT pelvis
{
  OFFSET 0 100 0
  CHANNELS 6 Xposition Yposition Zposition Zrotation Xrotation Yrotation
  JOINT pelvis_right_femur
  {
    OFFSET -10.78128 -3.44521 -0.5502486
    CHANNELS 3 Zrotation Xrotation Yrotation
    JOINT right_femur_tibia
    {
      OFFSET -0.8047443 -44.0398 -0.1307829
      CHANNELS 3 Zrotation Xrotation Yrotation
      JOINT right_tibia_foot
      {
        OFFSET 3.006224 -47.83518 -5
        CHANNELS 3 Zrotation Xrotation Yrotation
        End Site
        {
          OFFSET 0 -5 15
        }
      }
    }
  }
  JOINT pelvis_left_femur
  {
    OFFSET 10.78128 -3.44521 -0.5502486
    CHANNELS 3 Zrotation Xrotation Yrotation
    JOINT left_femur_tibia
    {
      OFFSET 0.8047443 -44.0398 -0.1307829
      CHANNELS 3 Zrotation Xrotation Yrotation
      JOINT left_tibia_foot
      {
        OFFSET -4.370144 -48.10324 -4.275266
        CHANNELS 3 Zrotation Xrotation Yrotation
        End Site
        {
          OFFSET 0 -5 15
        }
      }
    }
  }
  JOINT pelvis_spine1
  {
    OFFSET 0 6.468898 -3.129235
    CHANNELS 3 Zrotation Xrotation Yrotation
    JOINT spine1
    {
      OFFSET 0 23.15396 4.99043
      CHANNELS 3 Zrotation Xrotation Yrotation
      JOINT spine2
      {
        OFFSET 0 20.79997 -5.064912
        CHANNELS 3 Zrotation Xrotation Yrotation
        JOINT neck
        {
          OFFSET 0 14.38658 9.616178
          CHANNELS 3 Zrotation Xrotation Yrotation
          End Site
          {
            OFFSET 0 20 0
          }
        }
      }
      JOINT right_manubrium
      {
        OFFSET -5.722621 16.35077 3.967754
        CHANNELS 3 Zrotation Xrotation Yrotation
        JOINT right_clavicle
        {
          OFFSET -13.16364 1.694482 -4.693211
          CHANNELS 3 Zrotation Xrotation Yrotation
          JOINT right_humerus
          {
            OFFSET -28.5034 -0.3100689 -2.792744
            CHANNELS 3 Zrotation Xrotation Yrotation
            JOINT right_radius
            {
              OFFSET -25.15693 0.02248979 -1.271978
              CHANNELS 3 Zrotation Xrotation Yrotation
              End Site
              {
                OFFSET -15 0 0
              }
            }
          }
        }
      }
      JOINT left_manubrium
      {
        OFFSET 5.722621 16.35077 3.967754
        CHANNELS 3 Zrotation Xrotation Yrotation
        JOINT left_clavicle
        {
          OFFSET 13.16364 1.694482 -4.693211
          CHANNELS 3 Zrotation Xrotation Yrotation
          JOINT left_humerus
          {
            OFFSET 29.39168 -1.063119 -2.237045
            CHANNELS 3 Zrotation Xrotation Yrotation
            JOINT left_radius
            {
              OFFSET 24.59957 -0.9528479 0.9047498
              CHANNELS 3 Zrotation Xrotation Yrotation
              End Site
              {
                OFFSET 15 -0 -0
              }
            }
          }
        }
      }
    }
  }
}
MOTION
Frames: 13
Frame Time: 0.0416666666667
-572.5233 103.3385 2801.905 -7.372805 -9.556615 -41.63335 1.065327 23.84933 -2.2085 -0 31.55505 -0 -10.47078 1.698898 0.3659545 -4.43164 -10.05305 -11.41906 -0 14.68842 -0 -5.345972 -9.546336 20.67382 -2.067077 -0.5255626 7.254475 1.021199 12.4935 -5.858298 1.291326 22.20917 1.006301 -4.019961 -21.43447 7.153686 -2.35587 -31.33657 12.79403 92.17407 34.05882 -10.34622 -0 0 23.57645 -9.973802 7.094619 11.9092 -2.899188 -13.89454 -6.082962 -85.84123 15.06903 34.35904 0 0 -22.59343 9.489373 11.00508 3.494377
-576.1842 104.0104 2807.411 -7.460991 -10.52604 -41.30391 0.224554 22.40748 -2.489147 -0 37.32971 -0 -11.18799 6.906469 0.9383057 -5.644289 -7.320984 -12.59312 -0 15.91828 -0 -5.878977 -10.92268 20.92074 -2.140109 -0.3465014 7.009693 1.114351 12.37572 -6.050685 1.29056 22.37101 1.165385 -3.942917 -21.80213 7.285986 -2.701665 -31.21521 12.79863 92.68246 33.98 -10.7077 -0 0 23.16679 -10.02113 6.431119 11.42948 -2.801456 -13.87901 -5.851938 -85.58363 14.98872 33.77109 0 0 -21.78592 9.897418 11.27535 2.39031
-579.704 104.8712 2812.664 -7.615094 -11.19505 -40.72545 -0.1201334 19.28208 -2.721228 -0 42.43324 -0 -11.93192 10.85451 1.319014 -6.203623 -4.300746 -13.22035 -0 16.36266 -0 -5.859395 -12.06812 20.89076 -2.249247 -0.109864 6.682866 1.210986 12.23057 -6.283103 1.28773 22.63073 1.469916 -3.754257 -22.29156 7.512047 -3.141624 -30.91108 12.82485 93.468 33.96123 -11.37695 -0 0 22.38685 -10.11676 5.484032 10.74647 -2.633904 -13.94008 -5.576865 -85.23895 14.97676 32.80349 0 0 -20.89874 10.43434 11.51609 0.9662424
-583.023 105.804 2817.598 -7.776885 -11.47128 -39.99023 -0.04290532 14.71078 -3.005531 -0 45.86953 -0 -12.62546 12.96916 1.474093 -6.205539 -1.119013 -13.35953 -0 16.05117 -0 -5.421635 -13.06386 20.54015 -2.405227 0.1791298 6.286632 1.304557 12.03663 -6.543302 1.272266 22.98521 1.920696 -3.457574 -22.89744 7.829457 -3.677653 -30.44612 12.86089 94.47339 33.98928 -12.27947 -0 0 21.30796 -10.29955 4.26558 9.897753 -2.387032 -14.04495 -5.224384 -84.84965 15.0308 31.53076 0 0 -19.83761 11.07612 11.71418 -0.7554615
-586.1299 106.6653 2822.202 -7.841706 -11.35132 -39.19375 0.2629495 9.203224 -3.3925 -0 46.88806 -0 -13.19955 13.19341 1.405127 -5.87454 2.050962 -13.1675 -0 15.16816 -0 -4.749078 -14.0576 19.90054 -2.612062 0.5085664 5.839238 1.386426 11.78179 -6.815695 1.2344 23.42139 2.514043 -3.055608 -23.59929 8.230527 -4.297771 -29.84172 12.89829 95.63303 34.0473 -13.34161 -0 0 20.0048 -10.60678 2.821068 8.933466 -2.054557 -14.17282 -4.776255 -84.45895 15.15114 30.03351 0 0 -18.56139 11.77667 11.85038 -2.702857
-589.0546 107.3135 2826.514 -7.702258 -10.88243 -38.41535 0.5955621 3.334422 -3.88997 -0 45.27006 -0 -13.59729 11.90664 1.16019 -5.45377 5.036434 -12.81633 -0 13.96039 -0 -3.98974 -15.16816 19.06662 -2.864337 0.85711 5.364935 1.449005 11.46886 -7.082822 1.167965 23.91356 3.23533 -2.555255 -24.35595 8.699416 -4.967576 -29.12025 12.93505 96.87172 34.12361 -14.49538 -0 0 18.55047 -11.05232 1.237821 7.915637 -1.640107 -14.3196 -4.241343 -84.09982 15.33827 28.39135 0 0 -17.12586 12.4712 11.90628 -4.745948
-591.8517 107.6404 2830.602 -7.295849 -10.12953 -37.7116 0.8262864 -2.427356 -4.473083 -0 41.36025 -0 -13.77321 9.714596 0.8233323 -5.121569 7.703418 -12.43492 -0 12.67268 -0 -3.214317 -16.42515 18.16733 -3.146354 1.193421 4.892001 1.490523 11.11612 -7.328918 1.072603 24.42205 4.054517 -1.973002 -25.10711 9.21042 -5.627683 -28.30806 12.97618 98.1049 34.22007 -15.68157 -0 0 17.01405 -11.60535 -0.3573019 6.91565 -1.16103 -14.49904 -3.660088 -83.78277 15.58666 26.67198 0 0 -15.71085 13.08929 11.87251 -6.708954
-594.5838 107.5912 2834.548 -6.625822 -9.162799 -37.11507 0.9213282 -7.788542 -5.089422 -0 35.86864 -0 -13.69462 7.241972 0.488277 -4.962739 9.976069 -12.08806 -0 11.51621 -0 -2.419745 -17.76476 17.32958 -3.434487 1.480113 4.448227 1.518456 10.75128 -7.544112 0.9542602 24.89627 4.927643 -1.337127 -25.78523 9.729965 -6.202512 -27.43803 13.03081 99.24497 34.35589 -16.85194 -0 0 15.45974 -12.18381 -1.818323 6.007775 -0.6462399 -14.73775 -3.096084 -83.48981 15.87861 24.92091 0 0 -14.60177 13.5751 11.75219 -8.407576
-597.3114 107.1659 2838.438 -5.752538 -8.057155 -36.63395 0.9198664 -12.60696 -5.672336 -0 29.59858 -0 -13.352 4.998373 0.2318408 -4.982937 11.83899 -11.78188 -0 10.66598 -0 -1.566728 -19.06447 16.64407 -3.702348 1.682352 4.05511 1.548442 10.40163 -7.726804 0.8235152 25.28313 5.805248 -0.6837613 -26.33448 10.22337 -6.619467 -26.54817 13.1064 100.215 34.56235 -17.97132 -0 0 13.94494 -12.673 -3.013408 5.257699 -0.1280858 -15.06494 -2.61653 -83.18054 16.18386 23.15769 0 0 -14.11623 13.90501 11.55638 -9.698036
-600.0905 106.4109 2842.356 -4.769244 -6.890987 -36.25358 0.8979357 -16.82783 -6.158977 -0 23.24933 -0 -12.77172 3.321495 0.09506065 -5.139488 13.32688 -11.48197 -0 10.27829 -0 -0.6299719 -20.18384 16.14251 -3.925899 1.777475 3.723636 1.598145 10.08633 -7.882452 0.6929111 25.53767 6.642873 -0.04835134 -26.72629 10.66322 -6.829026 -25.67575 13.20327 100.9633 34.86781 -19.01881 -0 0 12.517 -12.96476 -3.853384 4.709401 0.3673735 -15.50179 -2.272085 -82.80967 16.46722 21.38259 0 0 -14.50408 14.09128 11.29499 -10.5109
-602.9749 105.4079 2846.38 -3.779668 -5.739897 -35.94263 0.9402824 -20.42195 -6.498095 -0 17.34742 -0 -12.01944 2.372524 0.0736438 -5.368217 14.50442 -11.135 -0 10.5151 -0 0.3621537 -20.98935 15.79264 -4.085884 1.760675 3.454349 1.679247 9.815967 -8.01918 0.5750509 25.6313 7.406271 0.5415459 -26.96181 11.03369 -6.815059 -24.85071 13.31248 101.471 35.27923 -19.98568 -0 0 11.21121 -12.99666 -4.300549 4.377112 0.8255298 -16.05482 -2.087188 -82.34797 16.69986 19.59373 0 0 -15.86788 14.16951 10.97189 -10.85166
-606.0174 104.2642 2850.586 -2.884844 -4.669757 -35.66466 1.127799 -23.34497 -6.64236 -0 12.27361 -0 -11.18955 2.158347 0.1184467 -5.599094 15.43947 -10.68881 -0 11.56262 -0 1.313117 -21.35996 15.51227 -4.168191 1.644636 3.241856 1.792083 9.597985 -8.142749 0.4817592 25.55618 8.069023 1.067314 -27.06195 11.32838 -6.593071 -24.09351 13.41835 101.749 35.77114 -20.8697 -0 0 10.05269 -12.77053 -4.360335 4.246276 1.240735 -16.71328 -2.062776 -81.79704 16.8675 17.80887 0 0 -18.13326 14.17933 10.58802 -10.77572
-609.2671 103.1063 2855.036 -2.177452 -3.734171 -35.39323 1.534441 -25.51884 -6.535046 -0 8.318275 -0 -10.38395 2.563433 0.1459603 -5.763013 16.17239 -10.10904 -0 13.6342 -0 2.072118 -21.18283 15.19908 -4.164771 1.454528 3.08101 1.925392 9.442301 -8.253502 0.4230099 25.32655 8.607562 1.515232 -27.05337 11.54476 -6.201632 -23.41869 13.50409 101.8305 36.28973 -21.66906 -0 0 9.060388 -12.34414 -4.069454 4.281668 1.608502 -17.44842 -2.185188 -81.19134 16.9722 16.08133 0 0 -21.07101 14.15001 10.14944 -10.35937
